<svg xmlns="http://www.w3.org/2000/svg" viewBox="0 0 280 620" role="img" aria-label="Coca-Cola Vanilla Zero can">
  <defs>
    <linearGradient id="va-metal" x1="0" y1="0" x2="1" y2="0">
      <stop offset="0%" stop-color="#4a4034"/>
      <stop offset="20%" stop-color="#1c1814"/>
      <stop offset="50%" stop-color="#2a241c"/>
      <stop offset="80%" stop-color="#0e0c0a"/>
      <stop offset="100%" stop-color="#5a5044"/>
    </linearGradient>
    <linearGradient id="va-shine" x1="0" y1="0" x2="1" y2="0">
      <stop offset="0%" stop-color="#fff" stop-opacity="0"/>
      <stop offset="38%" stop-color="#ffe9c4" stop-opacity=".22"/>
      <stop offset="100%" stop-color="#fff" stop-opacity="0"/>
    </linearGradient>
  </defs>
  <ellipse cx="140" cy="56" rx="78" ry="18" fill="#d0d0d0"/>
  <rect x="62" y="56" width="156" height="22" fill="#b8b8b8"/>
  <ellipse cx="140" cy="78" rx="78" ry="16" fill="#9a9a9a"/>
  <path d="M68 78h144c6 18 8 40 8 70v360c0 42-10 70-18 78H78c-8-8-18-36-18-78V148c0-30 2-52 8-70z" fill="url(#va-metal)"/>
  <path d="M68 78h144c6 18 8 40 8 70v360c0 42-10 70-18 78H78c-8-8-18-36-18-78V148c0-30 2-52 8-70z" fill="url(#va-shine)"/>
  <text x="140" y="248" text-anchor="middle" fill="#f3d7a0" font-family="Georgia, serif" font-style="italic" font-size="32" font-weight="700">Coca-Cola</text>
  <text x="140" y="292" text-anchor="middle" fill="#fff8ea" font-family="Arial Black, sans-serif" font-size="34" letter-spacing="2">VANILLA</text>
  <text x="140" y="322" text-anchor="middle" fill="#e8c98a" font-family="Arial, sans-serif" font-size="14" letter-spacing="7">ZERO SUGAR</text>
  <ellipse cx="140" cy="586" rx="80" ry="18" fill="#bdbdbd"/>
</svg>
