<svg xmlns="http://www.w3.org/2000/svg" width="820" height="1050" viewBox="0 0 820 1050" role="img" aria-labelledby="title desc">
  <title id="title">Stylized Coca-Cola Zero can</title>
  <desc id="desc">A black aluminum can with red bands and Coca-Cola Zero text.</desc>
  <defs>
    <linearGradient id="canBody" x1="126" x2="694" y1="96" y2="956" gradientUnits="userSpaceOnUse">
      <stop offset="0" stop-color="#444447"/>
      <stop offset="0.16" stop-color="#0a0a0b"/>
      <stop offset="0.48" stop-color="#171719"/>
      <stop offset="0.72" stop-color="#050505"/>
      <stop offset="1" stop-color="#343436"/>
    </linearGradient>
    <linearGradient id="rim" x1="180" x2="640" y1="74" y2="171" gradientUnits="userSpaceOnUse">
      <stop offset="0" stop-color="#fff8e8"/>
      <stop offset="0.3" stop-color="#77777a"/>
      <stop offset="0.52" stop-color="#f5f0e8"/>
      <stop offset="1" stop-color="#3d3d40"/>
    </linearGradient>
    <linearGradient id="redBand" x1="155" x2="675" y1="250" y2="785" gradientUnits="userSpaceOnUse">
      <stop offset="0" stop-color="#ff4050"/>
      <stop offset="0.45" stop-color="#e41d2f"/>
      <stop offset="1" stop-color="#8c0611"/>
    </linearGradient>
    <filter id="shadow" x="-20%" y="-12%" width="140%" height="130%">
      <feDropShadow dx="0" dy="24" stdDeviation="26" flood-color="#000000" flood-opacity="0.52"/>
    </filter>
  </defs>
  <g filter="url(#shadow)">
    <path fill="url(#canBody)" d="M216 126c21-31 367-31 388 0 35 52 37 752 0 800-25 32-371 32-388 0-35-67-35-737 0-800Z"/>
    <ellipse cx="410" cy="130" rx="198" ry="62" fill="url(#rim)"/>
    <ellipse cx="410" cy="128" rx="144" ry="33" fill="#1c1c1f" opacity="0.55"/>
    <path fill="#e6e0d5" d="M389 92c28-12 92-6 116 10 8 6 8 18 1 24-20 17-92 20-124 6-17-8-13-33 7-40Z" opacity="0.9"/>
    <path fill="#121214" d="M419 101c26-6 67-1 85 10 3 2 2 8-2 10-24 10-75 11-100 2-6-2-7-10-1-14 5-3 11-6 18-8Z"/>
    <path fill="url(#redBand)" d="M199 302c93 8 174-13 251-63 64-42 127-61 187-56 8 70 13 157 15 251-82-16-154 2-216 54-74 62-153 88-239 75-2-87-1-176 2-261Z"/>
    <path fill="#f8f3ea" d="M310 366c33-42 98-59 146-33 14 8 10 29-6 30-26 2-51-15-80 2-28 16-31 54-8 70 35 24 73-10 107-4 14 3 20 20 8 30-45 37-121 28-153-21-15-23-17-52-14-74Z" opacity="0.98"/>
    <text x="410" y="574" fill="#fffaf1" font-family="Impact, Arial Black, sans-serif" font-size="114" text-anchor="middle">ZERO</text>
    <text x="410" y="690" fill="#fffaf1" font-family="Impact, Arial Black, sans-serif" font-size="72" text-anchor="middle">SUGAR</text>
    <text x="410" y="768" fill="#e41d2f" font-family="Impact, Arial Black, sans-serif" font-size="52" text-anchor="middle">COCA-COLA</text>
    <path fill="#fffaf1" d="M244 858c104 28 229 31 333 5 8-2 12 10 4 14-89 42-251 41-341-1-8-4-5-20 4-18Z" opacity="0.78"/>
    <path fill="#ffffff" d="M565 160c43 98 47 626 11 714-6 14-24 9-21-6 34-173 31-519-7-698-3-14 11-24 17-10Z" opacity="0.18"/>
    <path fill="#ffffff" d="M266 168c-28 157-33 522-3 690 3 17-19 22-25 6-34-92-30-603 7-705 5-15 24-7 21 9Z" opacity="0.12"/>
    <ellipse cx="410" cy="922" rx="194" ry="46" fill="#070707" opacity="0.58"/>
    <ellipse cx="410" cy="920" rx="164" ry="29" fill="#303033" opacity="0.44"/>
  </g>
</svg>
