<?xml version="1.0" encoding="UTF-8"?>
<svg xmlns="http://www.w3.org/2000/svg" xmlns:xlink="http://www.w3.org/1999/xlink" width="3040.15pt" height="2254.88pt" viewBox="0 0 3040.15 2254.88" version="1.1">
<defs>
<clipPath id="clip1">
  <path d="M 0 0 L 3040.148438 0 L 3040.148438 2254.878906 L 0 2254.878906 Z M 0 0 "/>
</clipPath>
</defs>
<g id="surface1">
<g clip-path="url(#clip1)" clip-rule="nonzero">
<path style=" stroke:none;fill-rule:nonzero;fill:rgb(94.699097%,6.898499%,4.499817%);fill-opacity:1;" d="M 0 2254.878906 L 3040.148438 2254.878906 L 3040.148438 0.00390625 L 0 0.00390625 Z M 0 2254.878906 "/>
</g>
<path style=" stroke:none;fill-rule:nonzero;fill:rgb(0%,0%,0%);fill-opacity:1;" d="M 880.5625 1620.554688 L 880.5625 1649.621094 L 763.179688 1649.621094 L 763.179688 1622.929688 L 834.484375 1547.042969 L 766.648438 1547.042969 L 766.648438 1517.976562 L 877.816406 1517.976562 L 877.816406 1545.039062 L 806.878906 1620.554688 Z M 880.5625 1620.554688 "/>
<path style=" stroke:none;fill-rule:nonzero;fill:rgb(0%,0%,0%);fill-opacity:1;" d="M 1036.332031 1649.621094 L 921.515625 1649.621094 L 921.515625 1517.976562 L 1034.515625 1517.976562 L 1030.664062 1547.046875 L 955.160156 1547.046875 L 955.160156 1567.707031 L 1007.265625 1567.707031 L 1007.265625 1597.144531 L 955.160156 1597.144531 L 955.160156 1620.554688 L 1032.496094 1620.554688 Z M 1036.332031 1649.621094 "/>
<path style=" stroke:none;fill-rule:nonzero;fill:rgb(0%,0%,0%);fill-opacity:1;" d="M 1106.910156 1572.644531 L 1144.207031 1572.644531 C 1148.601562 1572.644531 1152.105469 1571.488281 1154.722656 1569.167969 C 1157.347656 1566.859375 1158.65625 1563.753906 1158.65625 1559.84375 C 1158.65625 1556.066406 1157.347656 1553.015625 1154.722656 1550.707031 C 1152.105469 1548.390625 1148.601562 1547.230469 1144.207031 1547.230469 L 1106.910156 1547.230469 Z M 1132.695312 1601.539062 L 1106.910156 1601.539062 L 1106.910156 1649.621094 L 1073.632812 1649.621094 L 1073.632812 1517.976562 L 1148.601562 1517.976562 C 1157.738281 1517.976562 1165.65625 1519.867188 1172.371094 1523.648438 C 1179.074219 1527.425781 1184.164062 1532.484375 1187.628906 1538.824219 C 1191.109375 1545.15625 1192.847656 1552.167969 1192.847656 1559.84375 C 1192.847656 1568.621094 1190.621094 1576.460938 1186.167969 1583.347656 C 1181.71875 1590.234375 1175.476562 1595.195312 1167.433594 1598.246094 L 1203.269531 1649.621094 L 1164.683594 1649.621094 Z M 1132.695312 1601.539062 "/>
<path style=" stroke:none;fill-rule:nonzero;fill:rgb(0%,0%,0%);fill-opacity:1;" d="M 1302.007812 1546.3125 C 1294.808594 1546.3125 1288.410156 1547.902344 1282.808594 1551.070312 C 1277.195312 1554.246094 1272.816406 1558.664062 1269.636719 1564.320312 C 1266.472656 1569.992188 1264.882812 1576.484375 1264.882812 1583.796875 C 1264.882812 1591.117188 1266.472656 1597.609375 1269.636719 1603.265625 C 1272.816406 1608.933594 1277.195312 1613.351562 1282.808594 1616.53125 C 1288.410156 1619.695312 1294.808594 1621.285156 1302.007812 1621.285156 C 1309.195312 1621.285156 1315.597656 1619.695312 1321.199219 1616.53125 C 1326.808594 1613.351562 1331.191406 1608.933594 1334.367188 1603.265625 C 1337.535156 1597.609375 1339.121094 1591.117188 1339.121094 1583.796875 C 1339.121094 1576.484375 1337.535156 1569.992188 1334.367188 1564.320312 C 1331.191406 1558.664062 1326.808594 1554.246094 1321.199219 1551.070312 C 1315.597656 1547.902344 1309.195312 1546.3125 1302.007812 1546.3125 M 1302.007812 1652 C 1288.109375 1652 1275.675781 1649.097656 1264.710938 1643.3125 C 1253.730469 1637.527344 1245.171875 1629.445312 1239.015625 1619.082031 C 1232.859375 1608.726562 1229.785156 1596.960938 1229.785156 1583.796875 C 1229.785156 1570.640625 1232.859375 1558.871094 1239.015625 1548.503906 C 1245.171875 1538.152344 1253.730469 1530.070312 1264.710938 1524.285156 C 1275.675781 1518.5 1288.109375 1515.601562 1302.007812 1515.601562 C 1315.898438 1515.601562 1328.328125 1518.5 1339.308594 1524.285156 C 1350.277344 1530.070312 1358.832031 1538.152344 1364.988281 1548.503906 C 1371.148438 1558.871094 1374.230469 1570.640625 1374.230469 1583.796875 C 1374.230469 1596.960938 1371.148438 1608.726562 1364.988281 1619.082031 C 1358.832031 1629.445312 1350.277344 1637.527344 1339.308594 1643.3125 C 1328.328125 1649.097656 1315.898438 1652 1302.007812 1652 "/>
<path style=" stroke:none;fill-rule:nonzero;fill:rgb(0%,0%,0%);fill-opacity:1;" d="M 1503.578125 1645.875 C 1492.179688 1642.152344 1483.078125 1637.0625 1476.25 1630.605469 L 1496.367188 1605.921875 C 1508.554688 1616.773438 1523.113281 1622.199219 1540.054688 1622.199219 C 1547.371094 1622.199219 1553.074219 1621.007812 1557.15625 1618.628906 C 1561.238281 1616.253906 1563.277344 1613.355469 1563.277344 1609.945312 C 1563.277344 1604.820312 1559.011719 1601.539062 1550.476562 1600.066406 L 1522.511719 1595.683594 C 1495.195312 1591.289062 1481.550781 1578.558594 1481.550781 1557.46875 C 1481.550781 1549.0625 1483.808594 1541.710938 1488.320312 1535.4375 C 1492.816406 1529.164062 1499.4375 1524.320312 1508.15625 1520.898438 C 1516.863281 1517.488281 1527.382812 1515.785156 1539.695312 1515.785156 C 1550.535156 1515.785156 1561.085938 1517.339844 1571.324219 1520.445312 C 1581.5625 1523.554688 1590.210938 1528.273438 1597.285156 1534.613281 L 1578.269531 1558.929688 C 1572.300781 1554.304688 1566.234375 1550.824219 1560.078125 1548.507812 C 1553.921875 1546.199219 1547.371094 1545.039062 1540.425781 1545.039062 C 1533.238281 1545.039062 1527.472656 1546.046875 1523.148438 1548.054688 C 1518.8125 1550.058594 1516.65625 1552.472656 1516.65625 1555.277344 C 1516.65625 1559.785156 1520.4375 1562.652344 1527.996094 1563.867188 L 1559.625 1568.992188 C 1572.914062 1571.058594 1582.757812 1575.449219 1589.15625 1582.152344 C 1595.558594 1588.855469 1598.746094 1597.214844 1598.746094 1607.195312 C 1598.746094 1616.101562 1596.402344 1623.867188 1591.707031 1630.515625 C 1587.023438 1637.15625 1580.25 1642.304688 1571.417969 1645.96875 C 1562.582031 1649.621094 1552.066406 1651.453125 1539.882812 1651.453125 C 1527.078125 1651.453125 1514.976562 1649.597656 1503.578125 1645.875 "/>
<path style=" stroke:none;fill-rule:nonzero;fill:rgb(0%,0%,0%);fill-opacity:1;" d="M 1664.566406 1645.410156 C 1655.300781 1641.027344 1648.171875 1634.746094 1643.175781 1626.582031 C 1638.175781 1618.421875 1635.671875 1608.726562 1635.671875 1597.515625 L 1635.671875 1517.976562 L 1669.507812 1517.976562 L 1669.507812 1594.035156 C 1669.507812 1602.941406 1671.847656 1609.699219 1676.542969 1614.328125 C 1681.226562 1618.964844 1688.148438 1621.285156 1697.296875 1621.285156 C 1706.550781 1621.285156 1713.507812 1618.964844 1718.132812 1614.328125 C 1722.769531 1609.699219 1725.089844 1602.941406 1725.089844 1594.035156 L 1725.089844 1517.976562 L 1758.910156 1517.976562 L 1758.910156 1597.515625 C 1758.910156 1608.726562 1756.441406 1618.421875 1751.503906 1626.582031 C 1746.574219 1634.746094 1739.464844 1641.027344 1730.203125 1645.410156 C 1720.9375 1649.808594 1709.96875 1652 1697.296875 1652 C 1684.742188 1652 1673.832031 1649.808594 1664.566406 1645.410156 "/>
<path style=" stroke:none;fill-rule:nonzero;fill:rgb(0%,0%,0%);fill-opacity:1;" d="M 1932.246094 1636.636719 C 1926.265625 1641.144531 1918.378906 1644.84375 1908.5625 1647.695312 C 1898.75 1650.558594 1887.816406 1651.996094 1875.746094 1651.996094 C 1860.386719 1651.996094 1846.703125 1649.101562 1834.703125 1643.3125 C 1822.691406 1637.527344 1813.335938 1629.503906 1806.632812 1619.265625 C 1799.933594 1609.027344 1796.582031 1597.386719 1796.582031 1584.34375 C 1796.582031 1571.058594 1799.863281 1559.207031 1806.449219 1548.785156 C 1813.035156 1538.359375 1822.078125 1530.222656 1833.601562 1524.378906 C 1845.113281 1518.523438 1858.066406 1515.601562 1872.453125 1515.601562 C 1884.398438 1515.601562 1895.273438 1517.28125 1905.09375 1520.632812 C 1914.902344 1523.984375 1923.15625 1528.761719 1929.871094 1534.976562 L 1911.03125 1559.113281 C 1899.703125 1550.09375 1886.902344 1545.582031 1872.640625 1545.582031 C 1865.195312 1545.582031 1858.34375 1547.230469 1852.070312 1550.523438 C 1845.789062 1553.816406 1840.824219 1558.363281 1837.160156 1564.148438 C 1833.511719 1569.933594 1831.679688 1576.484375 1831.679688 1583.796875 C 1831.679688 1591.113281 1833.566406 1597.691406 1837.347656 1603.542969 C 1841.125 1609.398438 1846.425781 1613.933594 1853.253906 1617.167969 C 1860.082031 1620.402344 1867.816406 1622.015625 1876.476562 1622.015625 C 1884.640625 1622.015625 1892.199219 1620.726562 1899.144531 1618.175781 L 1899.144531 1599.707031 L 1865.140625 1599.707031 L 1865.140625 1570.453125 L 1932.246094 1570.453125 Z M 1932.246094 1636.636719 "/>
<path style=" stroke:none;fill-rule:nonzero;fill:rgb(0%,0%,0%);fill-opacity:1;" d="M 2052.179688 1594.582031 L 2034.8125 1547.773438 L 2017.628906 1594.582031 Z M 2062.605469 1622.929688 L 2007.207031 1622.929688 L 1997.328125 1649.621094 L 1962.589844 1649.621094 L 2014.152344 1517.976562 L 2055.84375 1517.976562 L 2107.578125 1649.621094 L 2072.480469 1649.621094 Z M 2062.605469 1622.929688 "/>
<path style=" stroke:none;fill-rule:nonzero;fill:rgb(0%,0%,0%);fill-opacity:1;" d="M 2174.316406 1572.644531 L 2211.617188 1572.644531 C 2216.007812 1572.644531 2219.511719 1571.488281 2222.132812 1569.167969 C 2224.753906 1566.859375 2226.0625 1563.753906 2226.0625 1559.84375 C 2226.0625 1556.066406 2224.753906 1553.015625 2222.132812 1550.707031 C 2219.511719 1548.390625 2216.007812 1547.230469 2211.617188 1547.230469 L 2174.316406 1547.230469 Z M 2200.101562 1601.539062 L 2174.316406 1601.539062 L 2174.316406 1649.621094 L 2141.042969 1649.621094 L 2141.042969 1517.976562 L 2216.007812 1517.976562 C 2225.144531 1517.976562 2233.066406 1519.867188 2239.777344 1523.648438 C 2246.480469 1527.425781 2251.570312 1532.484375 2255.039062 1538.824219 C 2258.515625 1545.15625 2260.253906 1552.167969 2260.253906 1559.84375 C 2260.253906 1568.621094 2258.027344 1576.460938 2253.578125 1583.347656 C 2249.125 1590.234375 2242.886719 1595.195312 2234.839844 1598.246094 L 2270.675781 1649.621094 L 2232.089844 1649.621094 Z M 2200.101562 1601.539062 "/>
<path style=" stroke:none;fill-rule:nonzero;fill:rgb(0%,0%,0%);fill-opacity:1;" d="M 1622.207031 679.898438 L 1536 679.898438 L 1487.382812 758.742188 L 1573.53125 758.742188 Z M 1622.207031 679.898438 "/>
<path style=" stroke:none;fill-rule:nonzero;fill:rgb(0%,0%,0%);fill-opacity:1;" d="M 2138.171875 521.015625 C 2138.171875 521.015625 2084.328125 542.46875 2021.746094 611.460938 C 1958.941406 680.726562 1922.753906 758.183594 1949.738281 778.710938 C 1960.058594 786.570312 1983.933594 787.886719 2027.386719 748.839844 C 2061.261719 718.398438 2095.726562 678.550781 2119.117188 621.503906 C 2147.148438 553.117188 2138.183594 521.820312 2138.171875 521.015625 M 2480.949219 645.011719 C 2411.351562 609.394531 2360.546875 565.832031 2307.59375 538.667969 C 2257.054688 512.75 2224.414062 501.992188 2183.667969 507.429688 C 2176.910156 508.332031 2166.796875 511.621094 2166.796875 511.621094 C 2166.796875 511.621094 2187.894531 583.34375 2104.335938 704.019531 C 2019.683594 826.238281 1942.804688 825.621094 1920.996094 791.839844 C 1898.09375 756.402344 1927.550781 684.097656 1976.894531 619.820312 C 2028.527344 552.570312 2119.269531 496.6875 2119.269531 496.6875 C 2119.269531 496.6875 2090.300781 479.03125 2019.21875 519.316406 C 1950 558.554688 1830.453125 651.957031 1719.992188 809.496094 C 1609.539062 967.035156 1587.457031 1053.730469 1571.5 1121.972656 C 1555.554688 1190.21875 1570.148438 1263.210938 1645.859375 1263.210938 C 1721.570312 1263.210938 1809.511719 1147.773438 1834.300781 1107.597656 C 1880.425781 1032.871094 1910.511719 918.25 1847.707031 934.039062 C 1816.730469 941.828125 1791.679688 976.175781 1775.902344 1009.148438 C 1759.667969 1043.03125 1753.152344 1075.457031 1753.152344 1075.457031 C 1753.152344 1075.457031 1727.007812 1084.789062 1691.863281 1111.113281 C 1656.722656 1137.421875 1633.808594 1162.542969 1633.808594 1162.542969 C 1633.808594 1162.542969 1633.972656 1108.046875 1677.425781 1019.773438 C 1720.894531 931.5 1800.679688 891.097656 1845.84375 887.359375 C 1886.589844 883.996094 1939.554688 918.59375 1894.734375 1046.261719 C 1849.914062 1173.917969 1717.5 1328.75 1578.300781 1330.78125 C 1449.875 1332.65625 1365.6875 1168.703125 1544.335938 882.609375 C 1741.945312 566.164062 1974.175781 469.070312 2049.554688 458.195312 C 2124.933594 447.332031 2149.367188 480.613281 2149.367188 480.613281 C 2149.367188 480.613281 2212.53125 451.414062 2292.660156 456.839844 C 2384.683594 463.085938 2455.933594 528.1875 2549.773438 573.871094 C 2525.234375 597.664062 2501.914062 622.0625 2480.949219 645.011719 M 2894.296875 538.324219 C 2830.585938 579.320312 2742.277344 616.421875 2657.519531 608.253906 C 2636.089844 630.515625 2613.105469 656.160156 2590.035156 684.214844 C 2737.152344 713.21875 2865.847656 622.097656 2934.367188 544.4375 C 2977.085938 496.007812 2998.195312 452.769531 2998.195312 452.769531 C 2998.195312 452.769531 2957.386719 497.730469 2894.296875 538.324219 M 2698.730469 952.777344 C 2700.59375 949.546875 2701.4375 946.671875 2701.4375 946.671875 C 2701.4375 946.671875 2699.761719 934.289062 2687.984375 933.769531 C 2673.976562 933.140625 2654.824219 935.8125 2604.792969 991.269531 C 2554.949219 1046.5 2524.652344 1094.488281 2498.414062 1142.453125 C 2469.71875 1194.921875 2458.1875 1233.957031 2474.65625 1243.980469 C 2479.296875 1246.804688 2486.316406 1247.125 2491.964844 1245.757812 C 2503.1875 1243.027344 2515.78125 1232.652344 2535.085938 1210.367188 C 2544.097656 1199.953125 2554.109375 1185.125 2566.085938 1168.714844 C 2599.023438 1123.566406 2682.203125 981.414062 2698.730469 952.777344 M 2178.3125 1013.410156 C 2186.683594 991.503906 2197.273438 948.585938 2175.082031 931.796875 C 2151.316406 913.796875 2090.714844 955.910156 2090.40625 998.914062 C 2090.074219 1043.03125 2133.101562 1062.917969 2143.492188 1065.734375 C 2149.378906 1067.3125 2151.421875 1067.085938 2154.257812 1062.347656 C 2156.109375 1059.25 2169.941406 1035.292969 2178.3125 1013.410156 M 2132.542969 1093.597656 C 2130.964844 1093.027344 2111.316406 1084.042969 2090.90625 1067.027344 C 2070.558594 1050.085938 2060.261719 1030.554688 2059.46875 1029.082031 C 2058.683594 1027.609375 2057.78125 1028.75 2056.855469 1029.984375 C 2055.953125 1031.230469 2052.285156 1034.449219 2019.90625 1081.988281 C 1987.53125 1129.527344 1938.046875 1227.535156 1983.019531 1244.167969 C 2011.785156 1254.804688 2059.679688 1204.464844 2085.824219 1171.03125 C 2110.09375 1139.984375 2132.769531 1100.496094 2134.015625 1097.660156 C 2135.261719 1094.84375 2134.121094 1094.15625 2132.542969 1093.597656 M 2642.132812 1206.636719 C 2629.914062 1226.203125 2616.109375 1263.554688 2656.390625 1240.25 C 2705.460938 1211.851562 2775.34375 1105.792969 2775.34375 1105.792969 L 2806.914062 1105.792969 C 2806.914062 1105.792969 2765.253906 1171.6875 2710.945312 1231.867188 C 2661.222656 1286.980469 2600.566406 1337.074219 2557.835938 1332.132812 C 2507.9375 1326.363281 2523.535156 1260.835938 2523.535156 1260.835938 C 2523.535156 1260.835938 2451.898438 1336.894531 2402.660156 1331.46875 C 2335.984375 1324.109375 2356.261719 1241.589844 2356.261719 1241.589844 C 2356.261719 1241.589844 2280.894531 1334.402344 2229.507812 1331.46875 C 2148.867188 1326.835938 2169.074219 1228.449219 2191.480469 1159.671875 C 2203.496094 1122.78125 2214.597656 1093.695312 2214.597656 1093.695312 C 2214.597656 1093.695312 2206.582031 1095.804688 2189.4375 1098.324219 C 2180.484375 1099.640625 2164.101562 1100.507812 2164.101562 1100.507812 C 2164.101562 1100.507812 2130.609375 1159.789062 2103.789062 1195.445312 C 2076.96875 1231.085938 1962.847656 1353.742188 1895.648438 1329.210938 C 1833.625 1306.570312 1854.035156 1211.449219 1890.199219 1135.902344 C 1942.9375 1025.757812 2091.203125 867.449219 2176.78125 888.164062 C 2265.457031 909.644531 2178.859375 1071.5625 2178.859375 1071.5625 C 2178.859375 1071.5625 2178.941406 1072.167969 2179.832031 1072.511719 C 2181.589844 1073.214844 2186.171875 1073.652344 2196.917969 1071.609375 C 2213.964844 1068.378906 2229.355469 1061.910156 2229.355469 1061.910156 C 2229.355469 1061.910156 2318.46875 875.140625 2416.929688 752.910156 C 2515.378906 630.683594 2711.800781 420.238281 2789.03125 471.101562 C 2807.945312 483.554688 2799.328125 526.703125 2773.953125 579.046875 C 2762.734375 582.585938 2751.089844 585.707031 2739.132812 588.203125 C 2756.132812 557.34375 2767.402344 531.332031 2770.703125 513.203125 C 2782.253906 450.050781 2634.902344 583.144531 2529.652344 726.421875 C 2424.386719 869.703125 2361.234375 999.402344 2361.234375 999.402344 C 2361.234375 999.402344 2382.464844 987.398438 2415.566406 960.695312 C 2450.113281 932.84375 2497.652344 889.164062 2549.335938 835.757812 C 2584.050781 799.878906 2624.882812 754.742188 2663.113281 704.316406 C 2674.53125 703.746094 2685.703125 702.59375 2696.617188 700.863281 C 2653.980469 758.300781 2609.125 810.730469 2571.074219 849.328125 C 2529.199219 891.796875 2483.667969 937.578125 2444.082031 970.882812 C 2381.242188 1023.777344 2332.730469 1053.730469 2332.730469 1053.730469 C 2332.730469 1053.730469 2240.441406 1239.359375 2290.617188 1251.328125 C 2320.050781 1258.355469 2378.214844 1168.714844 2378.214844 1168.714844 C 2378.214844 1168.714844 2454.03125 1052.816406 2499.769531 1000.765625 C 2562.167969 929.707031 2615.871094 888.746094 2669.535156 887.820312 C 2700.832031 887.285156 2719.328125 920.636719 2719.328125 920.636719 L 2734.039062 897.878906 L 2824.699219 897.878906 C 2824.699219 897.878906 2655.609375 1185.042969 2642.132812 1206.636719 M 2894.296875 538.324219 C 2830.585938 579.320312 2742.277344 616.421875 2657.519531 608.253906 C 2636.089844 630.515625 2613.105469 656.160156 2590.035156 684.214844 C 2737.152344 713.21875 2865.847656 622.097656 2934.367188 544.4375 C 2977.085938 496.007812 2998.195312 452.769531 2998.195312 452.769531 C 2998.195312 452.769531 2957.386719 497.730469 2894.296875 538.324219 M 1214.320312 952.550781 C 1250.984375 902.304688 1352.054688 726.199219 1352.054688 726.199219 C 1352.054688 726.199219 1350.371094 713.828125 1338.59375 713.304688 C 1324.59375 712.675781 1301.429688 717.375 1254.914062 775.421875 C 1208.398438 833.480469 1172.660156 879.785156 1146.421875 927.761719 C 1117.734375 980.214844 1105.164062 1017.234375 1121.628906 1027.242188 C 1126.285156 1030.070312 1133.300781 1030.425781 1138.953125 1029.035156 C 1149.769531 1026.351562 1163.789062 1015.582031 1183.09375 993.296875 C 1192.109375 982.875 1202.355469 968.957031 1214.320312 952.550781 M 751.890625 714.71875 C 728.121094 696.71875 667.523438 738.832031 667.203125 781.832031 C 666.882812 825.953125 721.949219 838.5 729.023438 838.832031 C 729.023438 838.832031 735.257812 840.507812 737.726562 835.285156 C 739.269531 832.03125 746.75 818.222656 755.121094 796.320312 C 763.492188 774.425781 774.070312 731.503906 751.890625 714.71875 M 716.011719 866.542969 C 714.433594 865.976562 691.566406 859.410156 669.269531 845.152344 C 646.972656 830.890625 636.679688 809.722656 635.894531 808.25 C 635.085938 806.777344 634.1875 807.917969 633.28125 809.164062 C 632.378906 810.398438 627.617188 816.511719 595.253906 864.050781 C 562.878906 911.578125 514.902344 1008.910156 559.886719 1025.554688 C 588.664062 1036.195312 636.964844 985.652344 663.109375 952.207031 C 687.375 921.171875 716.238281 873.445312 717.484375 870.617188 C 718.730469 867.792969 717.601562 867.105469 716.011719 866.542969 M 1420.085938 895.503906 L 1451.65625 895.503906 C 1451.65625 895.503906 1293.535156 1124.160156 1204.132812 1113.828125 C 1154.234375 1108.046875 1169.003906 1046.429688 1169.003906 1046.429688 C 1169.003906 1046.429688 1098.789062 1128.515625 1034.722656 1112.132812 C 976.320312 1097.183594 1013.921875 1000.089844 1013.921875 1000.089844 C 1007.273438 1002.785156 880.996094 1145.28125 792.292969 1111.113281 C 699.449219 1075.339844 747.546875 956.078125 765.234375 920.246094 C 780.171875 890.003906 796.710938 860.539062 796.710938 860.539062 C 796.710938 860.539062 782.453125 864.609375 773.617188 866.652344 C 764.796875 868.679688 751.320312 871.292969 751.320312 871.292969 C 751.320312 871.292969 707.414062 942.707031 680.582031 978.363281 C 653.777344 1014.003906 539.691406 1136.578125 472.453125 1112.132812 C 405.234375 1087.6875 421.792969 993.703125 459.5625 918.941406 C 520.777344 797.730469 666.109375 648.789062 753.589844 671.085938 C 842.003906 693.617188 768.867188 837.113281 768.867188 837.113281 C 768.867188 837.113281 786.464844 839.355469 828.625 810.636719 C 889.386719 769.203125 969.339844 657.730469 1056.105469 670.742188 C 1096.851562 676.855469 1134.785156 718.683594 1082.925781 798.0625 C 1066.292969 823.53125 1038.449219 846.347656 1017.054688 823.875 C 1003.816406 809.949219 1015.359375 784.363281 1029.285156 766.835938 C 1048.984375 742.046875 1076.148438 745.445312 1076.148438 745.445312 C 1076.148438 745.445312 1090.394531 712.507812 1054.0625 713.1875 C 1024.535156 713.730469 949.867188 782.558594 907.734375 852.046875 C 869.027344 915.875 810.53125 1024.617188 869.371094 1048.292969 C 923.359375 1070.03125 1025.890625 948.132812 1073.414062 884.304688 C 1120.953125 820.480469 1229.066406 675.644531 1319.917969 669.71875 C 1351.152344 667.691406 1369.828125 696.207031 1369.828125 696.207031 L 1380.347656 679.574219 L 1471.007812 679.574219 C 1471.007812 679.574219 1300.054688 965.21875 1286.636719 986.839844 C 1276.117188 1003.816406 1262.203125 1041.84375 1300.898438 1020.453125 C 1339.601562 999.070312 1420.085938 895.503906 1420.085938 895.503906 M 1370.78125 1353.171875 C 1302.082031 1304.886719 1218.394531 1283.585938 1142.398438 1286.636719 C 1065.542969 1289.710938 1031.042969 1347.105469 1031.042969 1347.105469 C 996.316406 1286.636719 927.761719 1249.511719 821.832031 1250.425781 C 650.773438 1252.429688 480.945312 1331.46875 346.496094 1331.46875 C 217.441406 1331.46875 123.386719 1250.449219 126.484375 1106.46875 C 131.921875 854.089844 345.144531 626.609375 504.546875 524.171875 C 596.15625 465.320312 672.902344 447.855469 723.101562 453.445312 C 759.703125 457.519531 803.785156 499.796875 776.003906 562.09375 C 735.257812 653.429688 678.886719 645.785156 680.914062 602.164062 C 682.078125 573.847656 700.957031 555.980469 715.097656 546.230469 C 724.132812 539.988281 740.019531 538.207031 748.328125 538.039062 C 756.34375 531.210938 762.527344 481.289062 696.871094 497.769531 C 631.214844 514.246094 552.25 578.726562 476.882812 661.835938 C 401.527344 744.945312 284.34375 902.578125 255.375 1067.8125 C 241.921875 1144.496094 250.96875 1284.167969 432.515625 1282.578125 C 586.433594 1281.210938 813.675781 1179.804688 1022.386719 1181.621094 C 1103.417969 1182.324219 1173.917969 1204.121094 1228.886719 1238.089844 C 1283.066406 1271.546875 1347.863281 1320.058594 1370.78125 1353.171875 "/>
<path style=" stroke:none;fill-rule:nonzero;fill:rgb(0%,0%,0%);fill-opacity:1;" d="M 2809.449219 1284.976562 L 2824.84375 1284.976562 C 2826.652344 1284.976562 2828.09375 1284.488281 2829.148438 1283.503906 C 2830.203125 1282.53125 2830.722656 1281.207031 2830.722656 1279.550781 C 2830.722656 1277.890625 2830.203125 1276.570312 2829.148438 1275.582031 C 2828.09375 1274.609375 2826.652344 1274.113281 2824.84375 1274.113281 L 2809.449219 1274.113281 Z M 2842.722656 1289.394531 C 2840.914062 1292.335938 2838.34375 1294.566406 2835.023438 1296.070312 L 2849.738281 1317.800781 L 2833.449219 1317.800781 L 2820.3125 1297.429688 L 2809.449219 1297.429688 L 2809.449219 1317.800781 L 2795.1875 1317.800781 L 2795.1875 1261.890625 L 2827.558594 1261.890625 C 2832.996094 1261.890625 2837.332031 1263.582031 2840.578125 1266.980469 C 2843.8125 1270.378906 2845.4375 1274.566406 2845.4375 1279.550781 C 2845.4375 1283.167969 2844.53125 1286.449219 2842.722656 1289.394531 M 2844.867188 1333.753906 C 2852.496094 1329.453125 2858.410156 1323.539062 2862.644531 1315.992188 C 2866.863281 1308.445312 2868.984375 1299.921875 2868.984375 1290.414062 C 2868.984375 1281.054688 2866.863281 1272.605469 2862.644531 1265.054688 C 2858.410156 1257.519531 2852.453125 1251.59375 2844.765625 1247.292969 C 2837.066406 1242.992188 2828.382812 1240.847656 2818.734375 1240.847656 C 2809.078125 1240.847656 2800.390625 1242.992188 2792.707031 1247.292969 C 2785.007812 1251.59375 2779.046875 1257.519531 2774.816406 1265.054688 C 2770.59375 1272.605469 2768.484375 1281.054688 2768.484375 1290.414062 C 2768.484375 1299.921875 2770.59375 1308.445312 2774.816406 1315.992188 C 2779.046875 1323.539062 2784.972656 1329.453125 2792.589844 1333.753906 C 2800.207031 1338.054688 2808.925781 1340.210938 2818.734375 1340.210938 C 2828.542969 1340.210938 2837.253906 1338.054688 2844.867188 1333.753906 M 2851.210938 1236.882812 C 2860.949219 1242.390625 2868.601562 1249.890625 2874.191406 1259.398438 C 2879.769531 1268.90625 2882.5625 1279.246094 2882.5625 1290.414062 C 2882.5625 1301.730469 2879.769531 1312.105469 2874.191406 1321.535156 C 2868.601562 1330.96875 2860.949219 1338.4375 2851.210938 1343.945312 C 2841.484375 1349.453125 2830.652344 1352.199219 2818.734375 1352.199219 C 2806.804688 1352.199219 2795.988281 1349.453125 2786.246094 1343.945312 C 2776.519531 1338.4375 2768.855469 1330.96875 2763.277344 1321.535156 C 2757.691406 1312.105469 2754.894531 1301.730469 2754.894531 1290.414062 C 2754.894531 1279.246094 2757.691406 1268.90625 2763.277344 1259.398438 C 2768.855469 1249.890625 2776.519531 1242.390625 2786.246094 1236.882812 C 2795.988281 1231.375 2806.804688 1228.617188 2818.734375 1228.617188 C 2830.652344 1228.617188 2841.484375 1231.375 2851.210938 1236.882812 "/>
</g>
</svg>
